# xmcd CD database file
# Copyright (C) 1996 Ti Kan
#
# Track frame offsets:
# 	150
# 	14177
# 	33507
# 	47847
# 	61720
# 	93217
# 	108510
# 	121495
# 	137165
# 	156500
# 	176070
# 	195715
# 	207140
# 	225110
# 	249637
# 	262967
#
# Disc length: 3632 seconds
#
# Revision: 1
# Processed by: cddbd v1.4b41PL1 Copyright (c) Steve Scherf et al.
# Submitted via: DiscPlay 3.4.1
#
DISCID=dd0e2e10
DTITLE=Nina Simone - After Hours
DYEAR=1900
DGENRE=
TTITLE0=Night Song
TTITLE1=Lilac Wine
TTITLE2=Tell Me More and More and Then Some
TTITLE3=The Other Woman
TTITLE4=Wild Is the Wind
TTITLE5=Keeper of the Flame
TTITLE6=Images
TTITLE7=Black Is the Color of My True Love's Hair
TTITLE8=Nobody
TTITLE9=Little Girl Blue
TTITLE10=Don't Explain
TTITLE11=I Loves You, Porgy
TTITLE12=If I Should Lose You
TTITLE13=Don't Smoke in Bed
TTITLE14=End of the Line
TTITLE15=For Myself
EXTD=
EXTT0=
EXTT1=
EXTT2=
EXTT3=
EXTT4=
EXTT5=
EXTT6=
EXTT7=
EXTT8=
EXTT9=
EXTT10=
EXTT11=
EXTT12=
EXTT13=
EXTT14=
EXTT15=
PLAYORDER=
